<?xml version="1.0" encoding="utf-8"?>
<!-- Generator: Adobe Illustrator 24.1.3, SVG Export Plug-In . SVG Version: 6.00 Build 0)  -->
<svg version="1.1" id="Logo" xmlns="http://www.w3.org/2000/svg" xmlns:xlink="http://www.w3.org/1999/xlink" x="0px" y="0px"
	 viewBox="0 0 1012.3 647.3" style="enable-background:new 0 0 1012.3 647.3;" xml:space="preserve">
<style type="text/css">
	.st0{fill:#144372;}
	.st1{fill:#FFA522;}
	.st2{enable-background:new    ;}
</style>
<path id="M" class="st0" d="M861.5,391.2L751.3,155c-3.1-6.6-8.1-6.6-11.2,0l-60.8,130.4L618.5,155c-3.1-6.6-8.1-6.6-11.2,0
	L497.1,391.2c-2.3,4.8,0.3,8.8,5.6,8.8h43.1c2.4-0.1,4.5-1.5,5.6-3.6l61.5-131.8L673.7,395c3.1,6.6,8.1,6.6,11.2,0l60.8-130.4
	l61.5,131.8c1.1,2.1,3.2,3.4,5.6,3.6h43.1C861.2,400,863.8,396,861.5,391.2z"/>
<path id="V" class="st1" d="M445.3,395l110.2-236.3c2.3-4.8-0.3-8.8-5.6-8.8h-43.1c-2.4,0.1-4.5,1.5-5.6,3.6l-61.5,131.8
	l-61.5-131.8c-1.1-2.1-3.2-3.4-5.6-3.6h-43.1c-5.3,0-7.8,3.9-5.6,8.8L434.1,395C437.2,401.6,442.3,401.6,445.3,395z"/>
<g id="A">
	<path class="st0" d="M191.6,350h68.8c3.4,0,6.2,2.8,6.2,6.2v37.7c0,3.4-2.8,6.2-6.2,6.2h-68.8c-3.4,0-6.2-2.8-6.2-6.2v-37.7
		C185.5,352.8,188.2,350,191.6,350z"/>
	<path class="st0" d="M261,155L150.8,391.2c-2.3,4.8,0.3,8.8,5.6,8.8h43.1c2.4-0.1,4.5-1.5,5.6-3.6l61.5-131.8l61.5,131.8
		c1.1,2.1,3.2,3.4,5.6,3.6h43.1c5.3,0,7.8-4,5.6-8.8L272.2,155C269.1,148.4,264.1,148.4,261,155z"/>
</g>
<g class="st2">
	<path class="st0" d="M150.9,496.4c-0.5-0.5-0.8-1.4-0.8-2.6v-52.7c0-1.2,0.3-2.1,0.8-2.6c0.5-0.5,1.4-0.8,2.6-0.8h29.8
		c0.9,0,1.6,0.3,2,1c0.4,0.7,0.6,1.8,0.6,3.2v2.6c0,1.5-0.2,2.5-0.6,3.2c-0.4,0.7-1,1-2,1h-20.1v12.3H181c0.9,0,1.6,0.3,2,1
		c0.4,0.7,0.6,1.8,0.6,3.2v2.6c0,1.5-0.2,2.5-0.6,3.2c-0.4,0.7-1,1-2,1h-17.9v13.8h20.2c0.9,0,1.6,0.3,2,1c0.4,0.7,0.6,1.8,0.6,3.2
		v2.6c0,1.5-0.2,2.5-0.6,3.2c-0.4,0.7-1,1-2,1h-29.9C152.3,497.3,151.4,497,150.9,496.4z"/>
	<path class="st0" d="M212.5,496.4c-0.5-0.5-0.8-1.4-0.8-2.6v-52.7c0-1.2,0.3-2.1,0.8-2.6c0.5-0.5,1.4-0.8,2.6-0.8h18.2
		c8.8,0,15.5,2.6,20.2,7.7c4.7,5.1,7,12.5,7,22.1c0,9.6-2.3,16.9-7,22.1c-4.7,5.1-11.4,7.7-20.2,7.7h-18.2
		C213.9,497.3,213,497,212.5,496.4z M233.3,486.1c4.5,0,8-1.6,10.3-4.8c2.3-3.2,3.5-7.8,3.5-13.9c0-6.1-1.2-10.7-3.5-13.9
		c-2.3-3.2-5.8-4.8-10.3-4.8h-8.4v37.2H233.3z"/>
	<path class="st0" d="M291.7,492.5c-4.3-3.6-6.5-8.7-6.5-15.2v-37.1c0-1.8,1.7-2.7,5.1-2.7h2.9c3.4,0,5.1,0.9,5.1,2.7v36.2
		c0,3,1.1,5.5,3.2,7.4c2.2,1.9,4.9,2.9,8.3,2.9c3.4,0,6.2-1,8.4-2.9c2.2-1.9,3.3-4.4,3.3-7.4v-36.2c0-1.8,1.7-2.7,5.1-2.7h2.8
		c3.4,0,5.1,0.9,5.1,2.7v37.1c0,6.5-2.2,11.6-6.5,15.2c-4.3,3.6-10.4,5.4-18.2,5.4C302,497.9,296,496.1,291.7,492.5z"/>
	<path class="st0" d="M366.1,490.5c-4.6-5-6.8-12.7-6.8-23.2c0-20.2,9.5-30.3,28.4-30.3c2.8,0,5.7,0.3,8.7,0.9
		c2.9,0.6,5.2,1.4,6.9,2.3c1.5,0.9,2.2,1.8,2.2,2.7c0,0.8-0.3,1.8-0.9,3.1c-0.6,1.3-1.4,2.4-2.3,3.4c-0.9,1-1.7,1.5-2.3,1.5
		c-0.2,0-0.9-0.3-2-0.8s-2.6-1-4.3-1.4c-1.7-0.4-3.7-0.6-6.1-0.6c-5,0-8.7,1.6-11.1,4.8c-2.4,3.2-3.6,8-3.6,14.4
		c0,12.9,4.8,19.4,14.5,19.4c2.5,0,4.8-0.3,6.6-0.8c1.9-0.5,3.7-1.2,5.4-2c0.9-0.5,1.5-0.7,1.9-0.7c0.9,0,1.7,0.5,2.4,1.4
		c0.8,1,1.4,2.1,1.9,3.3c0.5,1.2,0.7,2.1,0.7,2.7c0,1.5-1,2.8-3,3.9c-1.9,1.1-4.3,1.9-7.4,2.4c-3.1,0.5-5.9,0.8-8.6,0.8
		C377.7,497.9,370.7,495.5,366.1,490.5z"/>
	<path class="st0" d="M423.3,495.5c0-0.2,0.1-0.7,0.3-1.5l18.7-54.7c0.5-1.2,2.1-1.8,4.8-1.8h4.4c2.8,0,4.4,0.6,4.8,1.8l18.7,54.7
		c0.2,0.6,0.3,1.1,0.3,1.5c0,1.2-1.4,1.9-4.3,1.9h-3.7c-2.8,0-4.4-0.6-4.8-1.8l-3.4-10.4h-20.1l-3.4,10.4c-0.4,1.2-1.7,1.8-3.9,1.8
		h-3.4C425.1,497.4,423.3,496.8,423.3,495.5z M455.6,474l-4.8-15.1c-0.4-1.1-0.8-2.9-1.3-5.4h-0.3c-0.1,0.3-0.2,1.1-0.4,2.3
		c-0.2,1.2-0.5,2.2-0.9,3.2l-5,15.1H455.6z"/>
	<path class="st0" d="M501.4,490.5c-4.6-5-6.8-12.7-6.8-23.2c0-20.2,9.5-30.3,28.4-30.3c2.8,0,5.7,0.3,8.7,0.9
		c2.9,0.6,5.2,1.4,6.9,2.3c1.5,0.9,2.2,1.8,2.2,2.7c0,0.8-0.3,1.8-0.9,3.1c-0.6,1.3-1.4,2.4-2.3,3.4c-0.9,1-1.7,1.5-2.3,1.5
		c-0.2,0-0.8-0.3-2-0.8c-1.2-0.5-2.6-1-4.3-1.4c-1.7-0.4-3.7-0.6-6.1-0.6c-5,0-8.7,1.6-11.1,4.8c-2.4,3.2-3.6,8-3.6,14.4
		c0,12.9,4.8,19.4,14.5,19.4c2.5,0,4.8-0.3,6.6-0.8c1.9-0.5,3.7-1.2,5.4-2c0.9-0.5,1.5-0.7,1.9-0.7c0.8,0,1.7,0.5,2.4,1.4
		c0.8,1,1.4,2.1,1.9,3.3c0.5,1.2,0.7,2.1,0.7,2.7c0,1.5-1,2.8-3,3.9c-1.9,1.1-4.3,1.9-7.4,2.4c-3.1,0.5-5.9,0.8-8.6,0.8
		C513,497.9,506,495.5,501.4,490.5z"/>
	<path class="st0" d="M564.1,494.7v-54.4c0-1.9,1.7-2.8,5.1-2.8h3c3.4,0,5.1,0.9,5.1,2.8v54.4c0,1.9-1.7,2.8-5.1,2.8h-3
		C565.8,497.5,564.1,496.6,564.1,494.7z"/>
	<path class="st0" d="M608.9,490.1c-4.7-5.2-7.1-12.8-7.1-22.6c0-9.8,2.4-17.3,7.1-22.6c4.7-5.2,11.4-7.9,20.2-7.9
		c8.8,0,15.5,2.6,20.2,7.9c4.7,5.2,7,12.8,7,22.6c0,9.8-2.3,17.3-7,22.6c-4.7,5.2-11.4,7.9-20.2,7.9
		C620.3,497.9,613.6,495.3,608.9,490.1z M639.4,481.9c2.3-3.3,3.5-8.1,3.5-14.4s-1.2-11.1-3.5-14.3c-2.3-3.3-5.8-4.9-10.3-4.9
		c-4.5,0-8,1.6-10.3,4.9c-2.4,3.3-3.5,8-3.5,14.3s1.2,11.1,3.5,14.4c2.4,3.3,5.8,4.9,10.3,4.9C633.7,486.8,637.1,485.2,639.4,481.9z
		"/>
	<path class="st0" d="M681.3,494.7v-54.4c0-1.8,1.7-2.7,5.1-2.7h3.7c1.4,0,2.5,0.2,3.4,0.5s1.6,0.9,2.2,1.8l19.1,29.5
		c1.1,1.6,2.2,3.3,3.1,5l0.3-0.1c-0.1-1.3-0.2-3.2-0.2-5.8v-28.2c0-1.8,1.7-2.7,5.1-2.7h2.5c3.4,0,5.1,0.9,5.1,2.7v54.4
		c0,1.8-1.7,2.7-5.1,2.7h-3.2c-1.4,0-2.5-0.2-3.4-0.5c-0.9-0.3-1.6-0.9-2.2-1.8l-19.5-29.9c-1.1-1.6-2.2-3.3-3.1-5l-0.3,0.1
		c0.1,1.3,0.2,3.2,0.2,5.8v28.6c0,1.8-1.7,2.7-5.1,2.7h-2.5C683,497.4,681.3,496.5,681.3,494.7z"/>
	<path class="st0" d="M751.9,495.5c0-0.2,0.1-0.7,0.3-1.5l18.7-54.7c0.5-1.2,2.1-1.8,4.8-1.8h4.4c2.8,0,4.4,0.6,4.8,1.8l18.7,54.7
		c0.2,0.6,0.3,1.1,0.3,1.5c0,1.2-1.4,1.9-4.3,1.9H796c-2.8,0-4.4-0.6-4.8-1.8l-3.4-10.4h-20.1l-3.4,10.4c-0.4,1.2-1.7,1.8-3.9,1.8
		H757C753.6,497.4,751.9,496.8,751.9,495.5z M784.2,474l-4.8-15.1c-0.4-1.1-0.8-2.9-1.3-5.4h-0.3c-0.1,0.3-0.2,1.1-0.4,2.3
		c-0.2,1.2-0.5,2.2-0.9,3.2l-5,15.1H784.2z"/>
	<path class="st0" d="M826.5,496.4c-0.5-0.5-0.8-1.4-0.8-2.6v-53.5c0-1.8,1.7-2.7,5.1-2.7h2.9c3.4,0,5.1,0.9,5.1,2.7v45.8h18.4
		c0.9,0,1.6,0.3,2,1c0.4,0.7,0.6,1.8,0.6,3.2v2.6c0,1.5-0.2,2.5-0.6,3.2c-0.4,0.7-1,1-2,1h-28C827.9,497.3,827.1,497,826.5,496.4z"
		/>
</g>
</svg>
